<svg width="500" height="500" viewBox="0 0 500 500" fill="none" xmlns="http://www.w3.org/2000/svg">
<g clip-path="url(#clip0_1_1426)">
<path d="M305.627 140.054L340.299 174.726V203.469H304.074V187.545L287.528 171.282H221.939L204.122 188.787V309.971L221.939 327.449H287.528L304.074 311.214V295.289H340.299V324.004L305.627 358.677H203.191L167.897 323.383V175.347L203.191 140.054H305.627Z" fill="#247BA0"/>
<path d="M417.691 251.327L390.304 279.449V373.612L375.678 388.238H361.024V388.182H152.735V388.238H123.286L108.632 373.612V279.449L81.2725 251.327V248.306L108.632 220.184V126.387L123.286 111.762H375.678L390.304 126.387V220.184L417.691 248.306V251.327Z" fill="#247BA0"/>
<path d="M340.299 203.469V174.726L305.627 140.054H203.191L167.897 175.347V323.383L203.191 358.677H305.627L340.299 324.004V295.289H304.074V311.214L287.528 327.449H221.939L204.122 309.971V188.787L221.939 171.282H287.528L304.074 187.545V203.469H340.299Z" fill="white"/>
<path d="M432.712 208.918V112.891L394.821 75H104.143L66.2514 112.891V208.918L37 238.932V260.701L66.2514 290.715V387.109L104.143 425H154.401H344.535H394.821L432.712 387.109V290.715L461.964 260.701V238.932L432.712 208.918ZM417.691 251.327L390.303 279.449V373.612L375.678 388.238H361.024V388.182H152.735V388.238H123.286L108.632 373.612V279.449L81.2723 251.327V248.306L108.632 220.184V126.388L123.286 111.762H375.678L390.303 126.388V220.184L417.691 248.306V251.327Z" fill="#247BA0"/>
<path d="M390.304 220.184V126.387L375.678 111.762H123.286L108.632 126.387V220.184L81.2725 248.306V251.327L108.632 279.449V373.612L123.286 388.238H152.735V388.182H361.024V388.238H375.678L390.304 373.612V279.449L417.691 251.327V248.306L390.304 220.184ZM340.3 203.469H304.074V187.544L287.529 171.281H221.939L204.123 188.787V309.971L221.939 327.448H287.529L304.074 311.213V295.289H340.3V324.004L305.627 358.676H203.191L167.897 323.382V175.347L203.191 140.053H305.627L340.3 174.726V203.469Z" fill="#2B2D42"/>
</g>
<defs>
<clipPath id="clip0_1_1426">
<rect width="424.964" height="350" fill="white" transform="translate(37 75)"/>
</clipPath>
</defs>
</svg>
